<?xml version="1.0" encoding="UTF-8" standalone="no"?>
<!DOCTYPE svg PUBLIC "-//W3C//DTD SVG 1.1//EN"
 "http://www.w3.org/Graphics/SVG/1.1/DTD/svg11.dtd">
<!-- Generated by graphviz version 14.1.2 (20260126.1125)
 -->
<!-- Title: pyforge_atlas_dag Pages: 1 -->
<svg width="667pt" height="725pt"
 viewBox="0.00 0.00 667.00 725.00" xmlns="http://www.w3.org/2000/svg" xmlns:xlink="http://www.w3.org/1999/xlink">
<g id="graph0" class="graph" transform="scale(1 1) rotate(0) translate(4 721)">
<title>pyforge_atlas_dag</title>
<polygon fill="white" stroke="none" points="-4,4 -4,-721 662.87,-721 662.87,4 -4,4"/>
<g id="clust1" class="cluster">
<title>cluster_core</title>
<path fill="#e3f2fd" stroke="#78909c" d="M222.39,-8C222.39,-8 408.89,-8 408.89,-8 414.89,-8 420.89,-14 420.89,-20 420.89,-20 420.89,-697 420.89,-697 420.89,-703 414.89,-709 408.89,-709 408.89,-709 222.39,-709 222.39,-709 216.39,-709 210.39,-703 210.39,-697 210.39,-697 210.39,-20 210.39,-20 210.39,-14 216.39,-8 222.39,-8"/>
<text xml:space="preserve" text-anchor="middle" x="315.64" y="-692.65" font-family="Helvetica,sans-Serif" font-weight="bold" font-size="13.00">core</text>
</g>
<!-- ds__core_anaconda_downloads_raw -->
<g id="node1" class="node">
<title>ds__core_anaconda_downloads_raw</title>
<ellipse fill="#ffe0b2" stroke="#b0bec5" cx="84.2" cy="-606" rx="84.2" ry="18"/>
<text xml:space="preserve" text-anchor="middle" x="84.2" y="-603.27" font-family="Helvetica,sans-Serif" font-size="8.00">core_anaconda_downloads_raw</text>
</g>
<!-- fn__compute_downloads -->
<g id="node26" class="node">
<title>fn__compute_downloads</title>
<path fill="white" stroke="#546e7a" d="M358.14,-572C358.14,-572 273.14,-572 273.14,-572 267.14,-572 261.14,-566 261.14,-560 261.14,-560 261.14,-548 261.14,-548 261.14,-542 267.14,-536 273.14,-536 273.14,-536 358.14,-536 358.14,-536 364.14,-536 370.14,-542 370.14,-548 370.14,-548 370.14,-560 370.14,-560 370.14,-566 364.14,-572 358.14,-572"/>
<text xml:space="preserve" text-anchor="middle" x="315.64" y="-551.08" font-family="Helvetica,sans-Serif" font-size="9.00">compute_downloads</text>
</g>
<!-- ds__core_anaconda_downloads_raw&#45;&gt;fn__compute_downloads -->
<g id="edge15" class="edge">
<title>ds__core_anaconda_downloads_raw&#45;&gt;fn__compute_downloads</title>
<path fill="none" stroke="#90a4ae" d="M143.39,-592.81C177.11,-585.17 219.5,-575.56 253.68,-567.82"/>
<polygon fill="#90a4ae" stroke="#90a4ae" points="253.97,-569.9 259.36,-566.53 253.05,-565.81 253.97,-569.9"/>
</g>
<!-- fn__compute_version_download_history -->
<g id="node27" class="node">
<title>fn__compute_version_download_history</title>
<path fill="white" stroke="#546e7a" d="M391.89,-624C391.89,-624 239.39,-624 239.39,-624 233.39,-624 227.39,-618 227.39,-612 227.39,-612 227.39,-600 227.39,-600 227.39,-594 233.39,-588 239.39,-588 239.39,-588 391.89,-588 391.89,-588 397.89,-588 403.89,-594 403.89,-600 403.89,-600 403.89,-612 403.89,-612 403.89,-618 397.89,-624 391.89,-624"/>
<text xml:space="preserve" text-anchor="middle" x="315.64" y="-603.08" font-family="Helvetica,sans-Serif" font-size="9.00">compute_version_download_history</text>
</g>
<!-- ds__core_anaconda_downloads_raw&#45;&gt;fn__compute_version_download_history -->
<g id="edge21" class="edge">
<title>ds__core_anaconda_downloads_raw&#45;&gt;fn__compute_version_download_history</title>
<path fill="none" stroke="#90a4ae" d="M168.68,-606C185.27,-606 202.81,-606 219.75,-606"/>
<polygon fill="#90a4ae" stroke="#90a4ae" points="219.46,-608.1 225.46,-606 219.46,-603.9 219.46,-608.1"/>
</g>
<!-- ds__core_cf_graph_raw -->
<g id="node2" class="node">
<title>ds__core_cf_graph_raw</title>
<ellipse fill="#ffe0b2" stroke="#b0bec5" cx="84.2" cy="-398" rx="52.73" ry="18"/>
<text xml:space="preserve" text-anchor="middle" x="84.2" y="-395.27" font-family="Helvetica,sans-Serif" font-size="8.00">core_cf_graph_raw</text>
</g>
<!-- fn__build_dependency_graph -->
<g id="node28" class="node">
<title>fn__build_dependency_graph</title>
<path fill="white" stroke="#546e7a" d="M369.02,-416C369.02,-416 262.27,-416 262.27,-416 256.27,-416 250.27,-410 250.27,-404 250.27,-404 250.27,-392 250.27,-392 250.27,-386 256.27,-380 262.27,-380 262.27,-380 369.02,-380 369.02,-380 375.02,-380 381.02,-386 381.02,-392 381.02,-392 381.02,-404 381.02,-404 381.02,-410 375.02,-416 369.02,-416"/>
<text xml:space="preserve" text-anchor="middle" x="315.64" y="-395.07" font-family="Helvetica,sans-Serif" font-size="9.00">build_dependency_graph</text>
</g>
<!-- ds__core_cf_graph_raw&#45;&gt;fn__build_dependency_graph -->
<g id="edge23" class="edge">
<title>ds__core_cf_graph_raw&#45;&gt;fn__build_dependency_graph</title>
<path fill="none" stroke="#90a4ae" d="M137.26,-398C168.49,-398 208.66,-398 242.87,-398"/>
<polygon fill="#90a4ae" stroke="#90a4ae" points="242.56,-400.1 248.56,-398 242.56,-395.9 242.56,-400.1"/>
</g>
<!-- fn__compute_feedstock_health -->
<g id="node29" class="node">
<title>fn__compute_feedstock_health</title>
<path fill="white" stroke="#546e7a" d="M372.39,-364C372.39,-364 258.89,-364 258.89,-364 252.89,-364 246.89,-358 246.89,-352 246.89,-352 246.89,-340 246.89,-340 246.89,-334 252.89,-328 258.89,-328 258.89,-328 372.39,-328 372.39,-328 378.39,-328 384.39,-334 384.39,-340 384.39,-340 384.39,-352 384.39,-352 384.39,-358 378.39,-364 372.39,-364"/>
<text xml:space="preserve" text-anchor="middle" x="315.64" y="-343.07" font-family="Helvetica,sans-Serif" font-size="9.00">compute_feedstock_health</text>
</g>
<!-- ds__core_cf_graph_raw&#45;&gt;fn__compute_feedstock_health -->
<g id="edge25" class="edge">
<title>ds__core_cf_graph_raw&#45;&gt;fn__compute_feedstock_health</title>
<path fill="none" stroke="#90a4ae" d="M128.89,-388.1C160.1,-381.02 202.86,-371.33 239.49,-363.03"/>
<polygon fill="#90a4ae" stroke="#90a4ae" points="239.87,-365.1 245.26,-361.73 238.94,-361 239.87,-365.1"/>
</g>
<!-- ds__core_channeldata_raw -->
<g id="node3" class="node">
<title>ds__core_channeldata_raw</title>
<ellipse fill="#ffe0b2" stroke="#b0bec5" cx="84.2" cy="-242" rx="62.21" ry="18"/>
<text xml:space="preserve" text-anchor="middle" x="84.2" y="-239.28" font-family="Helvetica,sans-Serif" font-size="8.00">core_channeldata_raw</text>
</g>
<!-- fn__enumerate_conda_packages -->
<g id="node23" class="node">
<title>fn__enumerate_conda_packages</title>
<path fill="white" stroke="#546e7a" d="M376.14,-260C376.14,-260 255.14,-260 255.14,-260 249.14,-260 243.14,-254 243.14,-248 243.14,-248 243.14,-236 243.14,-236 243.14,-230 249.14,-224 255.14,-224 255.14,-224 376.14,-224 376.14,-224 382.14,-224 388.14,-230 388.14,-236 388.14,-236 388.14,-248 388.14,-248 388.14,-254 382.14,-260 376.14,-260"/>
<text xml:space="preserve" text-anchor="middle" x="315.64" y="-239.07" font-family="Helvetica,sans-Serif" font-size="9.00">enumerate_conda_packages</text>
</g>
<!-- ds__core_channeldata_raw&#45;&gt;fn__enumerate_conda_packages -->
<g id="edge8" class="edge">
<title>ds__core_channeldata_raw&#45;&gt;fn__enumerate_conda_packages</title>
<path fill="none" stroke="#90a4ae" d="M146.68,-242C173.97,-242 206.42,-242 235.5,-242"/>
<polygon fill="#90a4ae" stroke="#90a4ae" points="235.29,-244.1 241.29,-242 235.29,-239.9 235.29,-244.1"/>
</g>
<!-- fn__detect_latest_status -->
<g id="node25" class="node">
<title>fn__detect_latest_status</title>
<path fill="white" stroke="#546e7a" d="M357.02,-208C357.02,-208 274.27,-208 274.27,-208 268.27,-208 262.27,-202 262.27,-196 262.27,-196 262.27,-184 262.27,-184 262.27,-178 268.27,-172 274.27,-172 274.27,-172 357.02,-172 357.02,-172 363.02,-172 369.02,-178 369.02,-184 369.02,-184 369.02,-196 369.02,-196 369.02,-202 363.02,-208 357.02,-208"/>
<text xml:space="preserve" text-anchor="middle" x="315.64" y="-187.07" font-family="Helvetica,sans-Serif" font-size="9.00">detect_latest_status</text>
</g>
<!-- ds__core_channeldata_raw&#45;&gt;fn__detect_latest_status -->
<g id="edge13" class="edge">
<title>ds__core_channeldata_raw&#45;&gt;fn__detect_latest_status</title>
<path fill="none" stroke="#90a4ae" d="M134.14,-230.91C169.45,-222.91 217.32,-212.06 254.89,-203.54"/>
<polygon fill="#90a4ae" stroke="#90a4ae" points="254.91,-205.69 260.3,-202.32 253.99,-201.59 254.91,-205.69"/>
</g>
<!-- ds__core_dependencies -->
<g id="node4" class="node">
<title>ds__core_dependencies</title>
<ellipse fill="#bbdefb" stroke="#b0bec5" cx="560.88" cy="-398" rx="55.32" ry="18"/>
<text xml:space="preserve" text-anchor="middle" x="560.88" y="-395.27" font-family="Helvetica,sans-Serif" font-size="8.00">core_dependencies</text>
</g>
<!-- ds__core_downloads -->
<g id="node5" class="node">
<title>ds__core_downloads</title>
<ellipse fill="#bbdefb" stroke="#b0bec5" cx="560.88" cy="-554" rx="47.56" ry="18"/>
<text xml:space="preserve" text-anchor="middle" x="560.88" y="-551.27" font-family="Helvetica,sans-Serif" font-size="8.00">core_downloads</text>
</g>
<!-- ds__core_downloads_channel_breakdown -->
<g id="node6" class="node">
<title>ds__core_downloads_channel_breakdown</title>
<ellipse fill="#bbdefb" stroke="#b0bec5" cx="560.88" cy="-502" rx="97.13" ry="18"/>
<text xml:space="preserve" text-anchor="middle" x="560.88" y="-499.27" font-family="Helvetica,sans-Serif" font-size="8.00">core_downloads_channel_breakdown</text>
</g>
<!-- ds__core_downloads_platform_breakdown -->
<g id="node7" class="node">
<title>ds__core_downloads_platform_breakdown</title>
<ellipse fill="#bbdefb" stroke="#b0bec5" cx="560.88" cy="-450" rx="97.99" ry="18"/>
<text xml:space="preserve" text-anchor="middle" x="560.88" y="-447.27" font-family="Helvetica,sans-Serif" font-size="8.00">core_downloads_platform_breakdown</text>
</g>
<!-- ds__core_downloads_pyver_breakdown -->
<g id="node8" class="node">
<title>ds__core_downloads_pyver_breakdown</title>
<ellipse fill="#bbdefb" stroke="#b0bec5" cx="560.88" cy="-606" rx="91.09" ry="18"/>
<text xml:space="preserve" text-anchor="middle" x="560.88" y="-603.27" font-family="Helvetica,sans-Serif" font-size="8.00">core_downloads_pyver_breakdown</text>
</g>
<!-- ds__core_feedstock_attribution -->
<g id="node9" class="node">
<title>ds__core_feedstock_attribution</title>
<ellipse fill="#bbdefb" stroke="#b0bec5" cx="560.88" cy="-86" rx="71.7" ry="18"/>
<text xml:space="preserve" text-anchor="middle" x="560.88" y="-83.28" font-family="Helvetica,sans-Serif" font-size="8.00">core_feedstock_attribution</text>
</g>
<!-- ds__core_feedstock_health -->
<g id="node10" class="node">
<title>ds__core_feedstock_health</title>
<ellipse fill="#bbdefb" stroke="#b0bec5" cx="560.88" cy="-346" rx="62.21" ry="18"/>
<text xml:space="preserve" text-anchor="middle" x="560.88" y="-343.27" font-family="Helvetica,sans-Serif" font-size="8.00">core_feedstock_health</text>
</g>
<!-- ds__core_feedstock_outputs_raw -->
<g id="node11" class="node">
<title>ds__core_feedstock_outputs_raw</title>
<ellipse fill="#ffe0b2" stroke="#b0bec5" cx="84.2" cy="-60" rx="76.01" ry="18"/>
<text xml:space="preserve" text-anchor="middle" x="84.2" y="-57.27" font-family="Helvetica,sans-Serif" font-size="8.00">core_feedstock_outputs_raw</text>
</g>
<!-- fn__attribute_feedstocks -->
<g id="node24" class="node">
<title>fn__attribute_feedstocks</title>
<path fill="white" stroke="#546e7a" d="M357.77,-104C357.77,-104 273.52,-104 273.52,-104 267.52,-104 261.52,-98 261.52,-92 261.52,-92 261.52,-80 261.52,-80 261.52,-74 267.52,-68 273.52,-68 273.52,-68 357.77,-68 357.77,-68 363.77,-68 369.77,-74 369.77,-80 369.77,-80 369.77,-92 369.77,-92 369.77,-98 363.77,-104 357.77,-104"/>
<text xml:space="preserve" text-anchor="middle" x="315.64" y="-83.08" font-family="Helvetica,sans-Serif" font-size="9.00">attribute_feedstocks</text>
</g>
<!-- ds__core_feedstock_outputs_raw&#45;&gt;fn__attribute_feedstocks -->
<g id="edge10" class="edge">
<title>ds__core_feedstock_outputs_raw&#45;&gt;fn__attribute_feedstocks</title>
<path fill="none" stroke="#90a4ae" d="M153.42,-67.73C185.33,-71.35 223.03,-75.62 253.95,-79.12"/>
<polygon fill="#90a4ae" stroke="#90a4ae" points="253.55,-81.19 259.74,-79.78 254.02,-77.02 253.55,-81.19"/>
</g>
<!-- ds__core_latest_status -->
<g id="node12" class="node">
<title>ds__core_latest_status</title>
<ellipse fill="#bbdefb" stroke="#b0bec5" cx="560.88" cy="-190" rx="51.87" ry="18"/>
<text xml:space="preserve" text-anchor="middle" x="560.88" y="-187.28" font-family="Helvetica,sans-Serif" font-size="8.00">core_latest_status</text>
</g>
<!-- ds__core_packages_enumerated -->
<g id="node13" class="node">
<title>ds__core_packages_enumerated</title>
<ellipse fill="#bbdefb" stroke="#b0bec5" cx="560.88" cy="-242" rx="75.57" ry="18"/>
<text xml:space="preserve" text-anchor="middle" x="560.88" y="-239.28" font-family="Helvetica,sans-Serif" font-size="8.00">core_packages_enumerated</text>
</g>
<!-- ds__core_repodata_raw -->
<g id="node14" class="node">
<title>ds__core_repodata_raw</title>
<ellipse fill="#ffe0b2" stroke="#b0bec5" cx="84.2" cy="-190" rx="54.02" ry="18"/>
<text xml:space="preserve" text-anchor="middle" x="84.2" y="-187.28" font-family="Helvetica,sans-Serif" font-size="8.00">core_repodata_raw</text>
</g>
<!-- ds__core_repodata_raw&#45;&gt;fn__enumerate_conda_packages -->
<g id="edge7" class="edge">
<title>ds__core_repodata_raw&#45;&gt;fn__enumerate_conda_packages</title>
<path fill="none" stroke="#90a4ae" d="M129.71,-200.09C159.76,-206.9 200.26,-216.08 235.7,-224.11"/>
<polygon fill="#90a4ae" stroke="#90a4ae" points="234.93,-226.09 241.24,-225.37 235.85,-221.99 234.93,-226.09"/>
</g>
<!-- ds__core_repodata_raw&#45;&gt;fn__detect_latest_status -->
<g id="edge12" class="edge">
<title>ds__core_repodata_raw&#45;&gt;fn__detect_latest_status</title>
<path fill="none" stroke="#90a4ae" d="M138.7,-190C173.32,-190 218.45,-190 254.33,-190"/>
<polygon fill="#90a4ae" stroke="#90a4ae" points="254.33,-192.1 260.33,-190 254.33,-187.9 254.33,-192.1"/>
</g>
<!-- ds__core_s3_download_stats_raw -->
<g id="node15" class="node">
<title>ds__core_s3_download_stats_raw</title>
<ellipse fill="#ffe0b2" stroke="#b0bec5" cx="84.2" cy="-528" rx="77.3" ry="18"/>
<text xml:space="preserve" text-anchor="middle" x="84.2" y="-525.27" font-family="Helvetica,sans-Serif" font-size="8.00">core_s3_download_stats_raw</text>
</g>
<!-- ds__core_s3_download_stats_raw&#45;&gt;fn__compute_downloads -->
<g id="edge16" class="edge">
<title>ds__core_s3_download_stats_raw&#45;&gt;fn__compute_downloads</title>
<path fill="none" stroke="#90a4ae" d="M154.35,-535.84C185.99,-539.42 223.15,-543.63 253.72,-547.1"/>
<polygon fill="#90a4ae" stroke="#90a4ae" points="253.24,-549.16 259.43,-547.74 253.71,-544.98 253.24,-549.16"/>
</g>
<!-- ds__core_version_download_history -->
<g id="node16" class="node">
<title>ds__core_version_download_history</title>
<ellipse fill="#bbdefb" stroke="#b0bec5" cx="560.88" cy="-658" rx="82.47" ry="18"/>
<text xml:space="preserve" text-anchor="middle" x="560.88" y="-655.27" font-family="Helvetica,sans-Serif" font-size="8.00">core_version_download_history</text>
</g>
<!-- fn__extract_core_anaconda_downloads_raw -->
<g id="node17" class="node">
<title>fn__extract_core_anaconda_downloads_raw</title>
<path fill="white" stroke="#546e7a" d="M400.89,-676C400.89,-676 230.39,-676 230.39,-676 224.39,-676 218.39,-670 218.39,-664 218.39,-664 218.39,-652 218.39,-652 218.39,-646 224.39,-640 230.39,-640 230.39,-640 400.89,-640 400.89,-640 406.89,-640 412.89,-646 412.89,-652 412.89,-652 412.89,-664 412.89,-664 412.89,-670 406.89,-676 400.89,-676"/>
<text xml:space="preserve" text-anchor="middle" x="315.64" y="-655.08" font-family="Helvetica,sans-Serif" font-size="9.00">extract_core_anaconda_downloads_raw</text>
</g>
<!-- fn__extract_core_anaconda_downloads_raw&#45;&gt;ds__core_anaconda_downloads_raw -->
<g id="edge1" class="edge">
<title>fn__extract_core_anaconda_downloads_raw&#45;&gt;ds__core_anaconda_downloads_raw</title>
<path fill="none" stroke="#90a4ae" d="M233.12,-639.53C206.03,-633.39 176.23,-626.63 150.53,-620.81"/>
<polygon fill="#90a4ae" stroke="#90a4ae" points="151.18,-618.8 144.87,-619.52 150.25,-622.9 151.18,-618.8"/>
</g>
<!-- fn__extract_core_cf_graph_raw -->
<g id="node18" class="node">
<title>fn__extract_core_cf_graph_raw</title>
<path fill="white" stroke="#546e7a" d="M372.39,-468C372.39,-468 258.89,-468 258.89,-468 252.89,-468 246.89,-462 246.89,-456 246.89,-456 246.89,-444 246.89,-444 246.89,-438 252.89,-432 258.89,-432 258.89,-432 372.39,-432 372.39,-432 378.39,-432 384.39,-438 384.39,-444 384.39,-444 384.39,-456 384.39,-456 384.39,-462 378.39,-468 372.39,-468"/>
<text xml:space="preserve" text-anchor="middle" x="315.64" y="-447.07" font-family="Helvetica,sans-Serif" font-size="9.00">extract_core_cf_graph_raw</text>
</g>
<!-- fn__extract_core_cf_graph_raw&#45;&gt;ds__core_cf_graph_raw -->
<g id="edge2" class="edge">
<title>fn__extract_core_cf_graph_raw&#45;&gt;ds__core_cf_graph_raw</title>
<path fill="none" stroke="#90a4ae" d="M246.73,-434.61C211.3,-426.58 168.67,-416.92 136.1,-409.54"/>
<polygon fill="#90a4ae" stroke="#90a4ae" points="136.68,-407.52 130.37,-408.24 135.76,-411.61 136.68,-407.52"/>
</g>
<!-- fn__extract_core_channeldata_raw -->
<g id="node19" class="node">
<title>fn__extract_core_channeldata_raw</title>
<path fill="white" stroke="#546e7a" d="M380.64,-312C380.64,-312 250.64,-312 250.64,-312 244.64,-312 238.64,-306 238.64,-300 238.64,-300 238.64,-288 238.64,-288 238.64,-282 244.64,-276 250.64,-276 250.64,-276 380.64,-276 380.64,-276 386.64,-276 392.64,-282 392.64,-288 392.64,-288 392.64,-300 392.64,-300 392.64,-306 386.64,-312 380.64,-312"/>
<text xml:space="preserve" text-anchor="middle" x="315.64" y="-291.07" font-family="Helvetica,sans-Serif" font-size="9.00">extract_core_channeldata_raw</text>
</g>
<!-- fn__extract_core_channeldata_raw&#45;&gt;ds__core_channeldata_raw -->
<g id="edge3" class="edge">
<title>fn__extract_core_channeldata_raw&#45;&gt;ds__core_channeldata_raw</title>
<path fill="none" stroke="#90a4ae" d="M238.24,-276.68C206.59,-269.51 170.55,-261.34 141.39,-254.74"/>
<polygon fill="#90a4ae" stroke="#90a4ae" points="141.93,-252.7 135.61,-253.43 141,-256.8 141.93,-252.7"/>
</g>
<!-- fn__extract_core_feedstock_outputs_raw -->
<g id="node20" class="node">
<title>fn__extract_core_feedstock_outputs_raw</title>
<path fill="white" stroke="#546e7a" d="M394.14,-52C394.14,-52 237.14,-52 237.14,-52 231.14,-52 225.14,-46 225.14,-40 225.14,-40 225.14,-28 225.14,-28 225.14,-22 231.14,-16 237.14,-16 237.14,-16 394.14,-16 394.14,-16 400.14,-16 406.14,-22 406.14,-28 406.14,-28 406.14,-40 406.14,-40 406.14,-46 400.14,-52 394.14,-52"/>
<text xml:space="preserve" text-anchor="middle" x="315.64" y="-31.07" font-family="Helvetica,sans-Serif" font-size="9.00">extract_core_feedstock_outputs_raw</text>
</g>
<!-- fn__extract_core_feedstock_outputs_raw&#45;&gt;ds__core_feedstock_outputs_raw -->
<g id="edge4" class="edge">
<title>fn__extract_core_feedstock_outputs_raw&#45;&gt;ds__core_feedstock_outputs_raw</title>
<path fill="none" stroke="#90a4ae" d="M224.99,-44.16C203.79,-46.56 181.39,-49.1 160.88,-51.42"/>
<polygon fill="#90a4ae" stroke="#90a4ae" points="160.64,-49.34 154.92,-52.1 161.12,-53.51 160.64,-49.34"/>
</g>
<!-- fn__extract_core_repodata_raw -->
<g id="node21" class="node">
<title>fn__extract_core_repodata_raw</title>
<path fill="white" stroke="#546e7a" d="M372.77,-156C372.77,-156 258.52,-156 258.52,-156 252.52,-156 246.52,-150 246.52,-144 246.52,-144 246.52,-132 246.52,-132 246.52,-126 252.52,-120 258.52,-120 258.52,-120 372.77,-120 372.77,-120 378.77,-120 384.77,-126 384.77,-132 384.77,-132 384.77,-144 384.77,-144 384.77,-150 378.77,-156 372.77,-156"/>
<text xml:space="preserve" text-anchor="middle" x="315.64" y="-135.07" font-family="Helvetica,sans-Serif" font-size="9.00">extract_core_repodata_raw</text>
</g>
<!-- fn__extract_core_repodata_raw&#45;&gt;ds__core_repodata_raw -->
<g id="edge5" class="edge">
<title>fn__extract_core_repodata_raw&#45;&gt;ds__core_repodata_raw</title>
<path fill="none" stroke="#90a4ae" d="M246.31,-153.49C211.23,-161.44 169.21,-170.96 136.87,-178.29"/>
<polygon fill="#90a4ae" stroke="#90a4ae" points="136.57,-176.2 131.18,-179.58 137.5,-180.3 136.57,-176.2"/>
</g>
<!-- fn__extract_core_s3_download_stats_raw -->
<g id="node22" class="node">
<title>fn__extract_core_s3_download_stats_raw</title>
<path fill="white" stroke="#546e7a" d="M394.89,-520C394.89,-520 236.39,-520 236.39,-520 230.39,-520 224.39,-514 224.39,-508 224.39,-508 224.39,-496 224.39,-496 224.39,-490 230.39,-484 236.39,-484 236.39,-484 394.89,-484 394.89,-484 400.89,-484 406.89,-490 406.89,-496 406.89,-496 406.89,-508 406.89,-508 406.89,-514 400.89,-520 394.89,-520"/>
<text xml:space="preserve" text-anchor="middle" x="315.64" y="-499.07" font-family="Helvetica,sans-Serif" font-size="9.00">extract_core_s3_download_stats_raw</text>
</g>
<!-- fn__extract_core_s3_download_stats_raw&#45;&gt;ds__core_s3_download_stats_raw -->
<g id="edge6" class="edge">
<title>fn__extract_core_s3_download_stats_raw&#45;&gt;ds__core_s3_download_stats_raw</title>
<path fill="none" stroke="#90a4ae" d="M223.98,-512.27C203.34,-514.61 181.61,-517.08 161.62,-519.34"/>
<polygon fill="#90a4ae" stroke="#90a4ae" points="161.58,-517.23 155.85,-519.99 162.05,-521.4 161.58,-517.23"/>
</g>
<!-- fn__enumerate_conda_packages&#45;&gt;ds__core_packages_enumerated -->
<g id="edge9" class="edge">
<title>fn__enumerate_conda_packages&#45;&gt;ds__core_packages_enumerated</title>
<path fill="none" stroke="#90a4ae" d="M388.63,-242C416.66,-242 448.93,-242 477.84,-242"/>
<polygon fill="#90a4ae" stroke="#90a4ae" points="477.6,-244.1 483.6,-242 477.6,-239.9 477.6,-244.1"/>
</g>
<!-- fn__attribute_feedstocks&#45;&gt;ds__core_feedstock_attribution -->
<g id="edge11" class="edge">
<title>fn__attribute_feedstocks&#45;&gt;ds__core_feedstock_attribution</title>
<path fill="none" stroke="#90a4ae" d="M370.02,-86C402.8,-86 445.35,-86 481.86,-86"/>
<polygon fill="#90a4ae" stroke="#90a4ae" points="481.56,-88.1 487.56,-86 481.56,-83.9 481.56,-88.1"/>
</g>
<!-- fn__detect_latest_status&#45;&gt;ds__core_latest_status -->
<g id="edge14" class="edge">
<title>fn__detect_latest_status&#45;&gt;ds__core_latest_status</title>
<path fill="none" stroke="#90a4ae" d="M369.42,-190C408.36,-190 461.33,-190 501.52,-190"/>
<polygon fill="#90a4ae" stroke="#90a4ae" points="501.36,-192.1 507.36,-190 501.36,-187.9 501.36,-192.1"/>
</g>
<!-- fn__compute_downloads&#45;&gt;ds__core_downloads -->
<g id="edge17" class="edge">
<title>fn__compute_downloads&#45;&gt;ds__core_downloads</title>
<path fill="none" stroke="#90a4ae" d="M370.62,-554C410.81,-554 465.44,-554 505.68,-554"/>
<polygon fill="#90a4ae" stroke="#90a4ae" points="505.51,-556.1 511.51,-554 505.51,-551.9 505.51,-556.1"/>
</g>
<!-- fn__compute_downloads&#45;&gt;ds__core_downloads_channel_breakdown -->
<g id="edge20" class="edge">
<title>fn__compute_downloads&#45;&gt;ds__core_downloads_channel_breakdown</title>
<path fill="none" stroke="#90a4ae" d="M370.62,-542.46C405.41,-535.02 451.02,-525.27 488.74,-517.21"/>
<polygon fill="#90a4ae" stroke="#90a4ae" points="488.79,-519.35 494.21,-516.04 487.91,-515.24 488.79,-519.35"/>
</g>
<!-- fn__compute_downloads&#45;&gt;ds__core_downloads_platform_breakdown -->
<g id="edge18" class="edge">
<title>fn__compute_downloads&#45;&gt;ds__core_downloads_platform_breakdown</title>
<path fill="none" stroke="#90a4ae" d="M370.48,-547.45C387.55,-543.63 405.87,-537.58 420.89,-528 445.94,-512.02 437.99,-492.2 462.89,-476 469.27,-471.85 476.29,-468.36 483.55,-465.43"/>
<polygon fill="#90a4ae" stroke="#90a4ae" points="483.99,-467.51 488.86,-463.42 482.5,-463.58 483.99,-467.51"/>
</g>
<!-- fn__compute_downloads&#45;&gt;ds__core_downloads_pyver_breakdown -->
<g id="edge19" class="edge">
<title>fn__compute_downloads&#45;&gt;ds__core_downloads_pyver_breakdown</title>
<path fill="none" stroke="#90a4ae" d="M370.62,-565.54C405.94,-573.09 452.4,-583.02 490.45,-591.16"/>
<polygon fill="#90a4ae" stroke="#90a4ae" points="489.67,-593.14 495.98,-592.34 490.55,-589.03 489.67,-593.14"/>
</g>
<!-- fn__compute_version_download_history&#45;&gt;ds__core_version_download_history -->
<g id="edge22" class="edge">
<title>fn__compute_version_download_history&#45;&gt;ds__core_version_download_history</title>
<path fill="none" stroke="#90a4ae" d="M403.08,-624.48C432.92,-630.86 465.84,-637.9 493.79,-643.87"/>
<polygon fill="#90a4ae" stroke="#90a4ae" points="492.99,-645.85 499.3,-645.05 493.87,-641.74 492.99,-645.85"/>
</g>
<!-- fn__build_dependency_graph&#45;&gt;ds__core_dependencies -->
<g id="edge24" class="edge">
<title>fn__build_dependency_graph&#45;&gt;ds__core_dependencies</title>
<path fill="none" stroke="#90a4ae" d="M381.51,-398C417.51,-398 462.06,-398 497.63,-398"/>
<polygon fill="#90a4ae" stroke="#90a4ae" points="497.57,-400.1 503.57,-398 497.57,-395.9 497.57,-400.1"/>
</g>
<!-- fn__compute_feedstock_health&#45;&gt;ds__core_feedstock_health -->
<g id="edge26" class="edge">
<title>fn__compute_feedstock_health&#45;&gt;ds__core_feedstock_health</title>
<path fill="none" stroke="#90a4ae" d="M384.72,-346C417.91,-346 457.74,-346 491.03,-346"/>
<polygon fill="#90a4ae" stroke="#90a4ae" points="490.95,-348.1 496.95,-346 490.95,-343.9 490.95,-348.1"/>
</g>
</g>
</svg>
